<svg width="17" height="17" viewBox="0 0 17 17" fill="none" xmlns="http://www.w3.org/2000/svg">
<path d="M15.8976 3.9593C15.8184 3.86445 15.7194 3.78815 15.6075 3.73579C15.4956 3.68342 15.3735 3.65627 15.25 3.65625H4.14062L3.75602 1.53633C3.72063 1.34204 3.61822 1.16632 3.46661 1.03976C3.31501 0.91321 3.12381 0.843846 2.92633 0.84375H1.1875C0.963724 0.84375 0.749112 0.932645 0.590879 1.09088C0.432645 1.24911 0.34375 1.46372 0.34375 1.6875C0.34375 1.91128 0.432645 2.12589 0.590879 2.28412C0.749112 2.44236 0.963724 2.53125 1.1875 2.53125H2.2218L3.97328 12.1641C4.02031 12.4199 4.11757 12.6639 4.25945 12.882C4.00826 13.1759 3.83704 13.5296 3.76231 13.9089C3.68759 14.2882 3.71187 14.6804 3.83283 15.0477C3.95378 15.4149 4.16732 15.7447 4.45286 16.0054C4.73839 16.2661 5.08628 16.4488 5.46297 16.5359C5.83966 16.623 6.23245 16.6116 6.60343 16.5027C6.97442 16.3939 7.3111 16.1912 7.58099 15.9144C7.85088 15.6375 8.04488 15.2958 8.14427 14.9222C8.24366 14.5485 8.2451 14.1556 8.14844 13.7812H10.5391C10.4218 14.2355 10.4494 14.7152 10.6182 15.153C10.7869 15.5908 11.0883 15.9649 11.4802 16.2229C11.872 16.481 12.3348 16.61 12.8036 16.5921C13.2725 16.5742 13.724 16.4101 14.095 16.1229C14.466 15.8356 14.7379 15.4396 14.8727 14.9902C15.0076 14.5408 14.9985 14.0605 14.8468 13.6165C14.6952 13.1725 14.4085 12.787 14.0269 12.5139C13.6453 12.2409 13.1879 12.094 12.7187 12.0938H5.91039C5.84464 12.0937 5.78099 12.0706 5.7305 12.0284C5.68002 11.9863 5.6459 11.9278 5.63406 11.8631L5.47094 10.9688H13.2883C13.7494 10.9688 14.196 10.8069 14.55 10.5113C14.904 10.2158 15.143 9.80532 15.2254 9.35156L16.0804 4.65047C16.1024 4.5289 16.0974 4.40399 16.0658 4.28456C16.0342 4.16513 15.9768 4.0541 15.8976 3.9593ZM6.53125 14.3438C6.53125 14.455 6.49826 14.5638 6.43645 14.6563C6.37464 14.7488 6.28679 14.8209 6.18401 14.8634C6.08123 14.906 5.96813 14.9171 5.85901 14.8954C5.7499 14.8737 5.64967 14.8202 5.571 14.7415C5.49233 14.6628 5.43876 14.5626 5.41706 14.4535C5.39535 14.3444 5.40649 14.2313 5.44907 14.1285C5.49164 14.0257 5.56374 13.9379 5.65624 13.876C5.74874 13.8142 5.8575 13.7812 5.96875 13.7812C6.11793 13.7812 6.26101 13.8405 6.3665 13.946C6.47199 14.0515 6.53125 14.1946 6.53125 14.3438ZM12.7187 14.9062C12.6075 14.9062 12.4987 14.8733 12.4062 14.8115C12.3137 14.7496 12.2416 14.6618 12.1991 14.559C12.1565 14.4562 12.1454 14.3431 12.1671 14.234C12.1888 14.1249 12.2423 14.0247 12.321 13.946C12.3997 13.8673 12.4999 13.8138 12.609 13.7921C12.7181 13.7704 12.8312 13.7815 12.934 13.8241C13.0368 13.8666 13.1246 13.9387 13.1865 14.0312C13.2483 14.1237 13.2812 14.2325 13.2812 14.3438C13.2812 14.4929 13.222 14.636 13.1165 14.7415C13.011 14.847 12.8679 14.9062 12.7187 14.9062ZM13.5625 9.05062C13.5507 9.11495 13.5169 9.17317 13.4669 9.21526C13.4168 9.25735 13.3537 9.28068 13.2883 9.28125H5.16437L4.44859 5.34375H14.2389L13.5625 9.05062Z" fill="#fff"/>
</svg>
